<svg width="16" height="20" viewBox="0 0 16 20" fill="none" xmlns="http://www.w3.org/2000/svg">
<path d="M4 1C4 0.447715 4.44772 0 5 0H13C14.6569 0 16 1.34315 16 3V17C16 18.6569 14.6569 20 13 20H5C4.44772 20 4 19.5523 4 19C4 18.4477 4.44772 18 5 18H13C13.5523 18 14 17.5523 14 17V3C14 2.44772 13.5523 2 13 2H5C4.44772 2 4 1.55228 4 1Z" fill="#162136"/>
<path d="M6.29289 5.29289C6.65338 4.93241 7.22061 4.90468 7.6129 5.2097L7.70711 5.29289L11.7071 9.29289C12.0676 9.65338 12.0953 10.2206 11.7903 10.6129L11.7071 10.7071L7.70711 14.7071C7.31658 15.0976 6.68342 15.0976 6.29289 14.7071C5.93241 14.3466 5.90468 13.7794 6.2097 13.3871L6.29289 13.2929L8.58524 11H1C0.447715 11 0 10.5523 0 10C0 9.48716 0.38604 9.06449 0.883379 9.00673L1 9H8.58524L6.29289 6.70711C5.93241 6.34662 5.90468 5.77939 6.2097 5.3871L6.29289 5.29289Z" fill="#162136"/>
</svg>
